<svg width="22" height="21" viewBox="0 0 22 21" fill="none" xmlns="http://www.w3.org/2000/svg">
<path d="M19.6429 0H2.35714C1.0558 0 0 1.00781 0 2.25V18.75C0 19.9922 1.0558 21 2.35714 21H19.6429C20.9442 21 22 19.9922 22 18.75V2.25C22 1.00781 20.9442 0 19.6429 0ZM13.6174 17.9859C13.2049 18.0563 13.0527 17.8125 13.0527 17.6109C13.0527 17.3578 13.0625 16.0641 13.0625 15.0187C13.0625 14.2875 12.8071 13.8234 12.5076 13.5797C14.3246 13.3875 16.2397 13.1484 16.2397 10.1531C16.2397 9.3 15.9205 8.87344 15.4 8.325C15.4835 8.12344 15.7634 7.29375 15.3165 6.21563C14.6339 6.01406 13.0723 7.05469 13.0723 7.05469C12.4241 6.88125 11.7219 6.79219 11.0295 6.79219C10.3371 6.79219 9.63482 6.88125 8.98661 7.05469C8.98661 7.05469 7.425 6.01406 6.74241 6.21563C6.29554 7.28906 6.57054 8.11875 6.65893 8.325C6.13839 8.87344 5.89286 9.3 5.89286 10.1531C5.89286 13.1344 7.72455 13.3875 9.54152 13.5797C9.3058 13.7813 9.09464 14.1281 9.02098 14.625C8.55446 14.8266 7.36116 15.1734 6.64911 13.9734C6.20223 13.2328 5.39687 13.1719 5.39687 13.1719C4.60134 13.1625 5.34286 13.65 5.34286 13.65C5.87321 13.8844 6.24643 14.7844 6.24643 14.7844C6.72277 16.1766 9.00134 15.7078 9.00134 15.7078C9.00134 16.3594 9.01116 17.4188 9.01116 17.6109C9.01116 17.8125 8.86384 18.0563 8.44643 17.9859C5.20536 16.95 2.93661 14.0062 2.93661 10.5656C2.93661 6.2625 6.38393 2.99531 10.892 2.99531C15.4 2.99531 19.0536 6.2625 19.0536 10.5656C19.0585 14.0062 16.8585 16.9547 13.6174 17.9859ZM8.8 15.1219C8.7067 15.1406 8.6183 15.1031 8.60848 15.0422C8.59866 14.9719 8.6625 14.9109 8.7558 14.8922C8.84911 14.8828 8.9375 14.9203 8.94732 14.9813C8.96205 15.0422 8.89821 15.1031 8.8 15.1219ZM8.33348 15.0797C8.33348 15.1406 8.25982 15.1922 8.16161 15.1922C8.05357 15.2016 7.97991 15.15 7.97991 15.0797C7.97991 15.0188 8.05357 14.9672 8.15179 14.9672C8.24509 14.9578 8.33348 15.0094 8.33348 15.0797ZM7.66071 15.0281C7.64107 15.0891 7.54286 15.1172 7.45937 15.0891C7.36607 15.0703 7.30223 15 7.32188 14.9391C7.34152 14.8781 7.43973 14.85 7.52321 14.8688C7.62143 14.8969 7.68527 14.9672 7.66071 15.0281ZM7.0567 14.775C7.0125 14.8266 6.9192 14.8172 6.84554 14.7469C6.77187 14.6859 6.75223 14.5969 6.80134 14.5547C6.84554 14.5031 6.93884 14.5125 7.0125 14.5828C7.07634 14.6438 7.10089 14.7375 7.0567 14.775ZM6.60982 14.3484C6.56563 14.3766 6.48214 14.3484 6.42812 14.2781C6.37411 14.2078 6.37411 14.1281 6.42812 14.0953C6.48214 14.0531 6.56563 14.0859 6.60982 14.1562C6.66384 14.2266 6.66384 14.3109 6.60982 14.3484ZM6.29063 13.8937C6.24643 13.9359 6.17277 13.9125 6.11875 13.8656C6.06473 13.8047 6.05491 13.7344 6.09911 13.7016C6.1433 13.6594 6.21696 13.6828 6.27098 13.7297C6.325 13.7906 6.33482 13.8609 6.29063 13.8937ZM5.96161 13.5469C5.94196 13.5891 5.87812 13.5984 5.82411 13.5656C5.76027 13.5375 5.7308 13.4859 5.75045 13.4437C5.77009 13.4156 5.82411 13.4016 5.88795 13.425C5.95179 13.4578 5.98125 13.5094 5.96161 13.5469Z" fill="#989595"/>
</svg>
